<?xml version="1.0" encoding="UTF-8"?>
<svg enable-background="new -0.258 -0.548 123.547 123.539" viewBox="-0.258 -0.548 123.547 123.539" xmlns="http://www.w3.org/2000/svg">
 <path d="m14.561 1.463c-6.7885 0-12.31 5.5337-12.31 12.322v94.374c0 6.7885 5.5212 12.322 12.31 12.322h94.387c6.776 0 12.285-5.5337 12.285-12.322v-94.374c0-6.7885-5.5086-12.322-12.285-12.322h-94.387z" fill="#fff"/>
 <path d="m108.95 122.99c8.1813 0 14.794-6.6379 14.794-14.832v-94.374c0-8.1939-6.6128-14.832-14.794-14.832h-94.387c-8.1813 0-14.819 6.6379-14.819 14.832v94.374c0 8.1939 6.6379 14.832 14.819 14.832h94.387z" fill="#231f20"/>
 <path d="m48.19 98.999h25.41l-0.0251-25.397h25.447v-25.435h-25.447l0.0251-25.385h-25.41l0.0251 25.385h-25.447v25.435h25.447l-0.0251 25.397z" fill="#fff"/>
</svg>
